# xmcd
#
# Track frame offsets:
#	150
#	15025
#	23093
#	33808
#	44458
#	55815
#	66077
#	79561
#	93026
#	107312
#	128046
#	140110
#	155218
#	170934
#	186665
#	197779
#	208080
#	220690
#
# Disc length: 3149 seconds
# Revision: 2
# Processed by: cddbd v1.5.2PL0 Copyright (c) Steve Scherf et al.
# Submitted via: dBpowerAMP V12.0
#
DISCID=f50c4b12
DTITLE=Various Artist - American Country Legends, Disc 4
DYEAR=2005
DGENRE=Country
TTITLE0=Don Gibson - Sweet Dreams
TTITLE1=Johnny Cash - I Got Stripes*
TTITLE2=Patsy Cline - Honky Tonk Merry Go Round
TTITLE3=Jim Reeves - Peace In the Valley*
TTITLE4=Razzy Bailey - 9,999,999 Tears
TTITLE5=Jan Howard - I Wish I Could Fall In Love Again
TTITLE6=George Jones - Almost Persuaded
TTITLE7=Billie Jo Spears - Fever
TTITLE8=Freddy Fender - Wasted Days And Wasted Nights
TTITLE9=Red Sovine - Daddy
TTITLE10=Buddy Owens - How Can I Tell My Dreams Not To Sleep With You
TTITLE11=Jerry Lee Lewis - Cold, Cold Heart*
TTITLE12=Don Williams - Tears
TTITLE13=Brenda Lee - Johnny One Time*
TTITLE14=Roy Drusky - I Can't Help It
TTITLE15=Anne Murray - Some Birds
TTITLE16=Jack Greene - Beautiful Lady
TTITLE17=Kenny Rogers - For The Good Times
EXTD=
EXTT0=
EXTT1=
EXTT2=
EXTT3=
EXTT4=
EXTT5=
EXTT6=
EXTT7=
EXTT8=
EXTT9=
EXTT10=
EXTT11=
EXTT12=
EXTT13=
EXTT14=
EXTT15=
EXTT16=
EXTT17=
PLAYORDER=
